<mxfile host="app.diagrams.net" modified="2022-09-07T17:44:13.349Z" agent="5.0 (Windows NT 10.0; Win64; x64) AppleWebKit/537.36 (KHTML, like Gecko) Chrome/105.0.0.0 Safari/537.36" etag="pNXEEYhrSFymH5pzd70J" version="20.3.0" type="github" pages="2">
  <diagram name="Use Case Diagram" id="b5b7bab2-c9e2-2cf4-8b2a-24fd1a2a6d21">
    <mxGraphModel dx="782" dy="468" grid="1" gridSize="10" guides="1" tooltips="1" connect="1" arrows="1" fold="1" page="1" pageScale="1" pageWidth="827" pageHeight="1169" background="none" math="0" shadow="0">
      <root>
        <mxCell id="0" />
        <mxCell id="1" parent="0" />
        <mxCell id="DMmQpoaEI2NIfHb3nnXW-68" value="Restaurant Finder" style="swimlane;fontSize=13;strokeColor=#9673a6;fillColor=#e1d5e7;" vertex="1" parent="1">
          <mxGeometry x="94" y="60" width="650" height="470" as="geometry" />
        </mxCell>
        <mxCell id="DMmQpoaEI2NIfHb3nnXW-69" value="View Results" style="ellipse;whiteSpace=wrap;html=1;align=center;strokeColor=#6c8ebf;fontSize=13;fillColor=#dae8fc;" vertex="1" parent="DMmQpoaEI2NIfHb3nnXW-68">
          <mxGeometry x="52.5" y="150" width="150" height="40" as="geometry" />
        </mxCell>
        <mxCell id="DMmQpoaEI2NIfHb3nnXW-70" value="Calculate Total Price" style="ellipse;whiteSpace=wrap;html=1;align=center;strokeColor=#6c8ebf;fontSize=13;fillColor=#dae8fc;" vertex="1" parent="DMmQpoaEI2NIfHb3nnXW-68">
          <mxGeometry x="50" y="320" width="155" height="40" as="geometry" />
        </mxCell>
        <mxCell id="DMmQpoaEI2NIfHb3nnXW-71" value="Select Items" style="ellipse;whiteSpace=wrap;html=1;align=center;strokeColor=#6c8ebf;fontSize=13;fillColor=#dae8fc;" vertex="1" parent="DMmQpoaEI2NIfHb3nnXW-68">
          <mxGeometry x="50" y="251" width="150" height="40" as="geometry" />
        </mxCell>
        <mxCell id="DMmQpoaEI2NIfHb3nnXW-72" value="Display Total Price" style="ellipse;whiteSpace=wrap;html=1;align=center;strokeColor=#6c8ebf;fontSize=13;fillColor=#dae8fc;" vertex="1" parent="DMmQpoaEI2NIfHb3nnXW-68">
          <mxGeometry x="52.5" y="390" width="150" height="40" as="geometry" />
        </mxCell>
        <mxCell id="DMmQpoaEI2NIfHb3nnXW-73" value="View Menu" style="ellipse;whiteSpace=wrap;html=1;align=center;strokeColor=#6c8ebf;fontSize=13;fillColor=#dae8fc;" vertex="1" parent="DMmQpoaEI2NIfHb3nnXW-68">
          <mxGeometry x="50" y="201" width="150" height="40" as="geometry" />
        </mxCell>
        <mxCell id="DMmQpoaEI2NIfHb3nnXW-74" value="&amp;lt;&amp;lt;include&amp;gt;&amp;gt;" style="html=1;verticalAlign=bottom;labelBackgroundColor=none;endArrow=open;endFill=0;dashed=1;rounded=0;fontSize=13;entryX=1;entryY=0.5;entryDx=0;entryDy=0;" edge="1" parent="DMmQpoaEI2NIfHb3nnXW-68" target="DMmQpoaEI2NIfHb3nnXW-70">
          <mxGeometry x="0.2131" y="35" width="160" relative="1" as="geometry">
            <mxPoint x="202.5" y="269.58" as="sourcePoint" />
            <mxPoint x="362.5" y="269.58" as="targetPoint" />
            <Array as="points">
              <mxPoint x="245" y="270" />
              <mxPoint x="245" y="310" />
              <mxPoint x="245" y="340" />
            </Array>
            <mxPoint as="offset" />
          </mxGeometry>
        </mxCell>
        <mxCell id="DMmQpoaEI2NIfHb3nnXW-75" value="Add Restaurants&amp;nbsp;" style="ellipse;whiteSpace=wrap;html=1;strokeColor=#6c8ebf;fontSize=13;fillColor=#dae8fc;" vertex="1" parent="DMmQpoaEI2NIfHb3nnXW-68">
          <mxGeometry x="445" y="37" width="165" height="50" as="geometry" />
        </mxCell>
        <mxCell id="DMmQpoaEI2NIfHb3nnXW-76" value="Remove Restaurant&amp;nbsp;" style="ellipse;whiteSpace=wrap;html=1;align=center;strokeColor=#b85450;fontSize=13;fillColor=#f8cecc;" vertex="1" parent="DMmQpoaEI2NIfHb3nnXW-68">
          <mxGeometry x="443.75" y="215" width="160" height="40" as="geometry" />
        </mxCell>
        <mxCell id="DMmQpoaEI2NIfHb3nnXW-77" value="Update the Menu" style="ellipse;whiteSpace=wrap;html=1;align=center;strokeColor=#6c8ebf;fontSize=13;fillColor=#dae8fc;" vertex="1" parent="DMmQpoaEI2NIfHb3nnXW-68">
          <mxGeometry x="430" y="370" width="173.75" height="40" as="geometry" />
        </mxCell>
        <mxCell id="DMmQpoaEI2NIfHb3nnXW-78" value="Remove Items from the Menu" style="ellipse;whiteSpace=wrap;html=1;align=center;strokeColor=#b85450;fontSize=13;fillColor=#f8cecc;" vertex="1" parent="DMmQpoaEI2NIfHb3nnXW-68">
          <mxGeometry x="420" y="320" width="185" height="40" as="geometry" />
        </mxCell>
        <mxCell id="DMmQpoaEI2NIfHb3nnXW-79" value="Update Restaurant List" style="ellipse;whiteSpace=wrap;html=1;align=center;strokeColor=#6c8ebf;fontSize=13;fillColor=#dae8fc;" vertex="1" parent="DMmQpoaEI2NIfHb3nnXW-68">
          <mxGeometry x="430" y="140" width="176.25" height="40" as="geometry" />
        </mxCell>
        <mxCell id="DMmQpoaEI2NIfHb3nnXW-80" value="Add Menu Items" style="ellipse;whiteSpace=wrap;html=1;align=center;strokeColor=#6c8ebf;fontSize=13;fillColor=#dae8fc;" vertex="1" parent="DMmQpoaEI2NIfHb3nnXW-68">
          <mxGeometry x="430" y="270" width="180" height="40" as="geometry" />
        </mxCell>
        <mxCell id="DMmQpoaEI2NIfHb3nnXW-81" value="&amp;lt;&amp;lt;include&amp;gt;&amp;gt;" style="html=1;verticalAlign=bottom;labelBackgroundColor=none;endArrow=open;endFill=0;dashed=1;rounded=0;fontSize=13;entryX=1;entryY=0.5;entryDx=0;entryDy=0;exitX=1;exitY=0.5;exitDx=0;exitDy=0;" edge="1" parent="DMmQpoaEI2NIfHb3nnXW-68" source="DMmQpoaEI2NIfHb3nnXW-75" target="DMmQpoaEI2NIfHb3nnXW-79">
          <mxGeometry x="0.4169" y="-37" width="160" relative="1" as="geometry">
            <mxPoint x="585" y="95" as="sourcePoint" />
            <mxPoint x="587.5" y="225" as="targetPoint" />
            <Array as="points" />
            <mxPoint as="offset" />
          </mxGeometry>
        </mxCell>
        <mxCell id="DMmQpoaEI2NIfHb3nnXW-82" value="&amp;lt;&amp;lt;extend&amp;gt;&amp;gt;" style="html=1;verticalAlign=bottom;labelBackgroundColor=none;endArrow=open;endFill=0;dashed=1;rounded=0;fontSize=13;exitX=0;exitY=0.5;exitDx=0;exitDy=0;" edge="1" parent="DMmQpoaEI2NIfHb3nnXW-68" source="DMmQpoaEI2NIfHb3nnXW-83">
          <mxGeometry x="-0.3241" y="29" width="160" relative="1" as="geometry">
            <mxPoint x="265" y="80" as="sourcePoint" />
            <mxPoint x="200" y="100" as="targetPoint" />
            <Array as="points">
              <mxPoint x="200" y="100" />
            </Array>
            <mxPoint as="offset" />
          </mxGeometry>
        </mxCell>
        <mxCell id="DMmQpoaEI2NIfHb3nnXW-83" value="Restaurant Not Found" style="ellipse;whiteSpace=wrap;html=1;strokeColor=#b85450;fontSize=13;fillColor=#f8cecc;" vertex="1" parent="DMmQpoaEI2NIfHb3nnXW-68">
          <mxGeometry x="270" y="40" width="145" height="44" as="geometry" />
        </mxCell>
        <mxCell id="DMmQpoaEI2NIfHb3nnXW-84" value="&amp;lt;&amp;lt;include&amp;gt;&amp;gt;" style="html=1;verticalAlign=bottom;labelBackgroundColor=none;endArrow=open;endFill=0;dashed=1;rounded=0;fontSize=13;entryX=0;entryY=0.5;entryDx=0;entryDy=0;exitX=0;exitY=0.5;exitDx=0;exitDy=0;" edge="1" parent="DMmQpoaEI2NIfHb3nnXW-68" source="DMmQpoaEI2NIfHb3nnXW-80" target="DMmQpoaEI2NIfHb3nnXW-77">
          <mxGeometry y="-41" width="160" relative="1" as="geometry">
            <mxPoint x="410" y="220" as="sourcePoint" />
            <mxPoint x="540" y="310" as="targetPoint" />
            <Array as="points">
              <mxPoint x="380" y="340" />
            </Array>
            <mxPoint x="-11" y="-19" as="offset" />
          </mxGeometry>
        </mxCell>
        <mxCell id="DMmQpoaEI2NIfHb3nnXW-85" value="" style="endArrow=none;html=1;rounded=0;fontSize=13;" edge="1" parent="DMmQpoaEI2NIfHb3nnXW-68">
          <mxGeometry width="50" height="50" relative="1" as="geometry">
            <mxPoint x="670" y="270" as="sourcePoint" />
            <mxPoint x="610" y="70" as="targetPoint" />
          </mxGeometry>
        </mxCell>
        <mxCell id="DMmQpoaEI2NIfHb3nnXW-86" value="" style="endArrow=none;html=1;rounded=0;entryX=0;entryY=0.5;entryDx=0;entryDy=0;" edge="1" parent="DMmQpoaEI2NIfHb3nnXW-68" target="DMmQpoaEI2NIfHb3nnXW-88">
          <mxGeometry width="50" height="50" relative="1" as="geometry">
            <mxPoint x="-17.5" y="130" as="sourcePoint" />
            <mxPoint x="70" y="110" as="targetPoint" />
            <Array as="points" />
          </mxGeometry>
        </mxCell>
        <mxCell id="DMmQpoaEI2NIfHb3nnXW-87" value="&lt;span style=&quot;font-size: 13px;&quot;&gt;Search&amp;nbsp;&lt;/span&gt;" style="ellipse;whiteSpace=wrap;html=1;fillColor=#dae8fc;strokeColor=#6c8ebf;" vertex="1" parent="DMmQpoaEI2NIfHb3nnXW-68">
          <mxGeometry x="70" y="40" width="140" height="50" as="geometry" />
        </mxCell>
        <mxCell id="DMmQpoaEI2NIfHb3nnXW-88" value="No Results Found" style="ellipse;whiteSpace=wrap;html=1;fillColor=#f8cecc;strokeColor=#b85450;" vertex="1" parent="DMmQpoaEI2NIfHb3nnXW-68">
          <mxGeometry x="70" y="90" width="130" height="50" as="geometry" />
        </mxCell>
        <mxCell id="DMmQpoaEI2NIfHb3nnXW-89" value="User" style="shape=umlActor;verticalLabelPosition=bottom;verticalAlign=top;html=1;outlineConnect=0;" vertex="1" parent="1">
          <mxGeometry x="34" y="160" width="30" height="60" as="geometry" />
        </mxCell>
        <mxCell id="DMmQpoaEI2NIfHb3nnXW-90" value="Admin" style="shape=umlActor;verticalLabelPosition=bottom;verticalAlign=top;html=1;outlineConnect=0;" vertex="1" parent="1">
          <mxGeometry x="764" y="310" width="30" height="60" as="geometry" />
        </mxCell>
        <mxCell id="DMmQpoaEI2NIfHb3nnXW-91" value="" style="endArrow=none;html=1;rounded=0;fontSize=13;entryX=0.071;entryY=0.8;entryDx=0;entryDy=0;entryPerimeter=0;" edge="1" parent="1" target="DMmQpoaEI2NIfHb3nnXW-87">
          <mxGeometry width="50" height="50" relative="1" as="geometry">
            <mxPoint x="74" y="190" as="sourcePoint" />
            <mxPoint x="144" y="109.25" as="targetPoint" />
            <Array as="points">
              <mxPoint x="124" y="160" />
            </Array>
          </mxGeometry>
        </mxCell>
        <mxCell id="DMmQpoaEI2NIfHb3nnXW-92" value="" style="endArrow=none;html=1;rounded=0;fontSize=13;entryX=0;entryY=0.5;entryDx=0;entryDy=0;" edge="1" parent="1" target="DMmQpoaEI2NIfHb3nnXW-69">
          <mxGeometry width="50" height="50" relative="1" as="geometry">
            <mxPoint x="74" y="190" as="sourcePoint" />
            <mxPoint x="134" y="230" as="targetPoint" />
            <Array as="points">
              <mxPoint x="114" y="210" />
            </Array>
          </mxGeometry>
        </mxCell>
        <mxCell id="DMmQpoaEI2NIfHb3nnXW-93" value="" style="endArrow=none;html=1;rounded=0;fontSize=13;entryX=0.006;entryY=0.383;entryDx=0;entryDy=0;entryPerimeter=0;" edge="1" parent="1" target="DMmQpoaEI2NIfHb3nnXW-73">
          <mxGeometry width="50" height="50" relative="1" as="geometry">
            <mxPoint x="74" y="190" as="sourcePoint" />
            <mxPoint x="134" y="170" as="targetPoint" />
          </mxGeometry>
        </mxCell>
        <mxCell id="DMmQpoaEI2NIfHb3nnXW-94" value="" style="endArrow=none;html=1;rounded=0;fontSize=13;entryX=0.022;entryY=0.321;entryDx=0;entryDy=0;entryPerimeter=0;" edge="1" parent="1" target="DMmQpoaEI2NIfHb3nnXW-71">
          <mxGeometry width="50" height="50" relative="1" as="geometry">
            <mxPoint x="74" y="190" as="sourcePoint" />
            <mxPoint x="144" y="180" as="targetPoint" />
          </mxGeometry>
        </mxCell>
        <mxCell id="DMmQpoaEI2NIfHb3nnXW-95" value="" style="endArrow=none;html=1;rounded=0;fontSize=13;entryX=0.113;entryY=0.092;entryDx=0;entryDy=0;entryPerimeter=0;" edge="1" parent="1" target="DMmQpoaEI2NIfHb3nnXW-70">
          <mxGeometry width="50" height="50" relative="1" as="geometry">
            <mxPoint x="74" y="190" as="sourcePoint" />
            <mxPoint x="154" y="380" as="targetPoint" />
          </mxGeometry>
        </mxCell>
        <mxCell id="DMmQpoaEI2NIfHb3nnXW-96" value="" style="endArrow=none;html=1;rounded=0;fontSize=13;entryX=0.017;entryY=0.5;entryDx=0;entryDy=0;entryPerimeter=0;" edge="1" parent="1" target="DMmQpoaEI2NIfHb3nnXW-72">
          <mxGeometry width="50" height="50" relative="1" as="geometry">
            <mxPoint x="74" y="190" as="sourcePoint" />
            <mxPoint x="162.30000000000018" y="352.8399999999999" as="targetPoint" />
          </mxGeometry>
        </mxCell>
        <mxCell id="DMmQpoaEI2NIfHb3nnXW-97" value="" style="endArrow=none;html=1;rounded=0;fontSize=13;entryX=1;entryY=0.5;entryDx=0;entryDy=0;" edge="1" parent="1" target="DMmQpoaEI2NIfHb3nnXW-76">
          <mxGeometry width="50" height="50" relative="1" as="geometry">
            <mxPoint x="754" y="340" as="sourcePoint" />
            <mxPoint x="709" y="150" as="targetPoint" />
          </mxGeometry>
        </mxCell>
        <mxCell id="DMmQpoaEI2NIfHb3nnXW-98" value="" style="endArrow=none;html=1;rounded=0;fontSize=13;entryX=1;entryY=0.5;entryDx=0;entryDy=0;" edge="1" parent="1" target="DMmQpoaEI2NIfHb3nnXW-80">
          <mxGeometry width="50" height="50" relative="1" as="geometry">
            <mxPoint x="754" y="340" as="sourcePoint" />
            <mxPoint x="694" y="230" as="targetPoint" />
          </mxGeometry>
        </mxCell>
        <mxCell id="DMmQpoaEI2NIfHb3nnXW-99" value="" style="endArrow=none;html=1;rounded=0;fontSize=13;entryX=1;entryY=0.5;entryDx=0;entryDy=0;" edge="1" parent="1" target="DMmQpoaEI2NIfHb3nnXW-78">
          <mxGeometry width="50" height="50" relative="1" as="geometry">
            <mxPoint x="754" y="340" as="sourcePoint" />
            <mxPoint x="704" y="240" as="targetPoint" />
          </mxGeometry>
        </mxCell>
        <mxCell id="DMmQpoaEI2NIfHb3nnXW-100" value="" style="endArrow=none;html=1;rounded=0;fontSize=13;entryX=1;entryY=0.5;entryDx=0;entryDy=0;" edge="1" parent="1" target="DMmQpoaEI2NIfHb3nnXW-77">
          <mxGeometry width="50" height="50" relative="1" as="geometry">
            <mxPoint x="754" y="340" as="sourcePoint" />
            <mxPoint x="714" y="250" as="targetPoint" />
          </mxGeometry>
        </mxCell>
        <mxCell id="DMmQpoaEI2NIfHb3nnXW-101" value="" style="endArrow=none;html=1;rounded=0;fontSize=13;entryX=1;entryY=0.5;entryDx=0;entryDy=0;" edge="1" parent="1" target="DMmQpoaEI2NIfHb3nnXW-79">
          <mxGeometry width="50" height="50" relative="1" as="geometry">
            <mxPoint x="754" y="340" as="sourcePoint" />
            <mxPoint x="684" y="480" as="targetPoint" />
          </mxGeometry>
        </mxCell>
        <mxCell id="DMmQpoaEI2NIfHb3nnXW-102" style="edgeStyle=orthogonalEdgeStyle;rounded=0;orthogonalLoop=1;jettySize=auto;html=1;exitX=0;exitY=0.5;exitDx=0;exitDy=0;" edge="1" parent="1" source="DMmQpoaEI2NIfHb3nnXW-80">
          <mxGeometry relative="1" as="geometry">
            <mxPoint x="524" y="370" as="targetPoint" />
          </mxGeometry>
        </mxCell>
        <mxCell id="DMmQpoaEI2NIfHb3nnXW-103" value="&lt;b&gt;&lt;font style=&quot;font-size: 19px;&quot;&gt;Use Case Diagram&lt;/font&gt;&lt;/b&gt;" style="text;html=1;align=center;verticalAlign=middle;resizable=0;points=[];autosize=1;strokeColor=default;fillColor=none;dashed=1;" vertex="1" parent="1">
          <mxGeometry x="319" width="190" height="40" as="geometry" />
        </mxCell>
      </root>
    </mxGraphModel>
  </diagram>
  <diagram id="GNG9vuEuGxXa2whmLHhD" name="Activity Diagram">
    <mxGraphModel dx="1632" dy="468" grid="1" gridSize="10" guides="1" tooltips="1" connect="1" arrows="1" fold="1" page="1" pageScale="1" pageWidth="850" pageHeight="1100" math="0" shadow="0">
      <root>
        <mxCell id="0" />
        <mxCell id="1" parent="0" />
        <mxCell id="fnDxnUJMtYbM2u1HrAq8-1" value="&lt;b&gt;&lt;font style=&quot;font-size: 19px;&quot;&gt;Activity Diagram&lt;/font&gt;&lt;/b&gt;" style="text;html=1;align=center;verticalAlign=middle;resizable=0;points=[];autosize=1;strokeColor=default;fillColor=none;dashed=1;" vertex="1" parent="1">
          <mxGeometry x="240" y="40" width="170" height="40" as="geometry" />
        </mxCell>
        <mxCell id="fnDxnUJMtYbM2u1HrAq8-2" value="User" style="swimlane;whiteSpace=wrap;strokeColor=#6c8ebf;fillColor=#dae8fc;" vertex="1" parent="1">
          <mxGeometry x="-70" y="110" width="400" height="650" as="geometry" />
        </mxCell>
        <mxCell id="fnDxnUJMtYbM2u1HrAq8-3" value="" style="ellipse;shape=startState;fillColor=#000000;strokeColor=#ff0000;" vertex="1" parent="fnDxnUJMtYbM2u1HrAq8-2">
          <mxGeometry x="17.5" y="40" width="30" height="30" as="geometry" />
        </mxCell>
        <mxCell id="fnDxnUJMtYbM2u1HrAq8-4" style="edgeStyle=orthogonalEdgeStyle;rounded=0;orthogonalLoop=1;jettySize=auto;html=1;" edge="1" parent="fnDxnUJMtYbM2u1HrAq8-2" source="fnDxnUJMtYbM2u1HrAq8-5" target="fnDxnUJMtYbM2u1HrAq8-13">
          <mxGeometry relative="1" as="geometry">
            <Array as="points" />
          </mxGeometry>
        </mxCell>
        <mxCell id="fnDxnUJMtYbM2u1HrAq8-5" value="Search Restaurant" style="fillColor=#dae8fc;strokeColor=#6c8ebf;" vertex="1" parent="fnDxnUJMtYbM2u1HrAq8-2">
          <mxGeometry x="87.5" y="30" width="110" height="50" as="geometry" />
        </mxCell>
        <mxCell id="fnDxnUJMtYbM2u1HrAq8-6" value="Check Timings" style="fillColor=#dae8fc;strokeColor=#6c8ebf;" vertex="1" parent="fnDxnUJMtYbM2u1HrAq8-2">
          <mxGeometry x="10" y="243" width="110" height="50" as="geometry" />
        </mxCell>
        <mxCell id="fnDxnUJMtYbM2u1HrAq8-7" style="edgeStyle=orthogonalEdgeStyle;rounded=0;orthogonalLoop=1;jettySize=auto;html=1;entryX=0.495;entryY=-0.04;entryDx=0;entryDy=0;entryPerimeter=0;fontSize=19;" edge="1" parent="fnDxnUJMtYbM2u1HrAq8-2" source="fnDxnUJMtYbM2u1HrAq8-8" target="fnDxnUJMtYbM2u1HrAq8-10">
          <mxGeometry relative="1" as="geometry" />
        </mxCell>
        <mxCell id="fnDxnUJMtYbM2u1HrAq8-8" value="View Menu" style="fillColor=#dae8fc;strokeColor=#6c8ebf;" vertex="1" parent="fnDxnUJMtYbM2u1HrAq8-2">
          <mxGeometry x="57.5" y="350" width="110" height="50" as="geometry" />
        </mxCell>
        <mxCell id="fnDxnUJMtYbM2u1HrAq8-9" value="" style="edgeStyle=orthogonalEdgeStyle;rounded=0;orthogonalLoop=1;jettySize=auto;html=1;fontSize=19;" edge="1" parent="fnDxnUJMtYbM2u1HrAq8-2" source="fnDxnUJMtYbM2u1HrAq8-10" target="fnDxnUJMtYbM2u1HrAq8-12">
          <mxGeometry relative="1" as="geometry" />
        </mxCell>
        <mxCell id="fnDxnUJMtYbM2u1HrAq8-10" value="Select Items" style="fillColor=#dae8fc;strokeColor=#6c8ebf;" vertex="1" parent="fnDxnUJMtYbM2u1HrAq8-2">
          <mxGeometry x="57.5" y="440" width="110" height="50" as="geometry" />
        </mxCell>
        <mxCell id="fnDxnUJMtYbM2u1HrAq8-11" style="edgeStyle=orthogonalEdgeStyle;rounded=0;orthogonalLoop=1;jettySize=auto;html=1;entryX=0.5;entryY=0;entryDx=0;entryDy=0;" edge="1" parent="fnDxnUJMtYbM2u1HrAq8-2" source="fnDxnUJMtYbM2u1HrAq8-12" target="fnDxnUJMtYbM2u1HrAq8-16">
          <mxGeometry relative="1" as="geometry" />
        </mxCell>
        <mxCell id="fnDxnUJMtYbM2u1HrAq8-12" value="View Total Price" style="fillColor=#dae8fc;strokeColor=#6c8ebf;" vertex="1" parent="fnDxnUJMtYbM2u1HrAq8-2">
          <mxGeometry x="57.5" y="520" width="110" height="50" as="geometry" />
        </mxCell>
        <mxCell id="fnDxnUJMtYbM2u1HrAq8-13" value="" style="rhombus;whiteSpace=wrap;html=1;strokeColor=#0000FF;" vertex="1" parent="fnDxnUJMtYbM2u1HrAq8-2">
          <mxGeometry x="80" y="180" width="45" height="40" as="geometry" />
        </mxCell>
        <mxCell id="fnDxnUJMtYbM2u1HrAq8-14" style="edgeStyle=orthogonalEdgeStyle;rounded=0;orthogonalLoop=1;jettySize=auto;html=1;entryX=0.445;entryY=1;entryDx=0;entryDy=0;entryPerimeter=0;" edge="1" parent="fnDxnUJMtYbM2u1HrAq8-2" source="fnDxnUJMtYbM2u1HrAq8-15" target="fnDxnUJMtYbM2u1HrAq8-6">
          <mxGeometry relative="1" as="geometry" />
        </mxCell>
        <mxCell id="fnDxnUJMtYbM2u1HrAq8-15" value="" style="rhombus;whiteSpace=wrap;html=1;strokeColor=#0000FF;" vertex="1" parent="fnDxnUJMtYbM2u1HrAq8-2">
          <mxGeometry x="125" y="293" width="35" height="40" as="geometry" />
        </mxCell>
        <mxCell id="fnDxnUJMtYbM2u1HrAq8-16" value="" style="ellipse;html=1;shape=endState;fillColor=#000000;strokeColor=#ff0000;" vertex="1" parent="fnDxnUJMtYbM2u1HrAq8-2">
          <mxGeometry x="97.5" y="610" width="30" height="28" as="geometry" />
        </mxCell>
        <mxCell id="fnDxnUJMtYbM2u1HrAq8-17" value="" style="endArrow=classic;html=1;rounded=0;entryX=-0.018;entryY=0.52;entryDx=0;entryDy=0;entryPerimeter=0;" edge="1" parent="fnDxnUJMtYbM2u1HrAq8-2" source="fnDxnUJMtYbM2u1HrAq8-3" target="fnDxnUJMtYbM2u1HrAq8-5">
          <mxGeometry width="50" height="50" relative="1" as="geometry">
            <mxPoint x="520" y="320" as="sourcePoint" />
            <mxPoint x="570" y="270" as="targetPoint" />
          </mxGeometry>
        </mxCell>
        <mxCell id="fnDxnUJMtYbM2u1HrAq8-18" style="edgeStyle=orthogonalEdgeStyle;rounded=0;orthogonalLoop=1;jettySize=auto;html=1;entryX=0.841;entryY=1;entryDx=0;entryDy=0;entryPerimeter=0;" edge="1" parent="fnDxnUJMtYbM2u1HrAq8-2" source="fnDxnUJMtYbM2u1HrAq8-13" target="fnDxnUJMtYbM2u1HrAq8-5">
          <mxGeometry relative="1" as="geometry">
            <mxPoint x="240" y="90" as="targetPoint" />
            <Array as="points">
              <mxPoint x="260" y="200" />
              <mxPoint x="260" y="120" />
              <mxPoint x="180" y="120" />
            </Array>
          </mxGeometry>
        </mxCell>
        <mxCell id="fnDxnUJMtYbM2u1HrAq8-19" style="edgeStyle=orthogonalEdgeStyle;rounded=0;orthogonalLoop=1;jettySize=auto;html=1;entryX=1.023;entryY=0.6;entryDx=0;entryDy=0;entryPerimeter=0;" edge="1" parent="fnDxnUJMtYbM2u1HrAq8-2" source="fnDxnUJMtYbM2u1HrAq8-15" target="fnDxnUJMtYbM2u1HrAq8-5">
          <mxGeometry relative="1" as="geometry">
            <mxPoint x="300" y="60" as="targetPoint" />
            <Array as="points">
              <mxPoint x="143" y="270" />
              <mxPoint x="310" y="270" />
              <mxPoint x="310" y="60" />
            </Array>
          </mxGeometry>
        </mxCell>
        <mxCell id="fnDxnUJMtYbM2u1HrAq8-20" value="Not found" style="text;html=1;align=center;verticalAlign=middle;resizable=0;points=[];autosize=1;strokeColor=#b85450;fillColor=#f8cecc;" vertex="1" parent="fnDxnUJMtYbM2u1HrAq8-2">
          <mxGeometry x="125" y="160" width="80" height="30" as="geometry" />
        </mxCell>
        <mxCell id="fnDxnUJMtYbM2u1HrAq8-21" value="Found" style="text;html=1;align=center;verticalAlign=middle;resizable=0;points=[];autosize=1;strokeColor=#6c8ebf;fillColor=#dae8fc;" vertex="1" parent="fnDxnUJMtYbM2u1HrAq8-2">
          <mxGeometry x="27.5" y="160" width="60" height="30" as="geometry" />
        </mxCell>
        <mxCell id="fnDxnUJMtYbM2u1HrAq8-22" style="edgeStyle=orthogonalEdgeStyle;rounded=0;orthogonalLoop=1;jettySize=auto;html=1;" edge="1" parent="fnDxnUJMtYbM2u1HrAq8-2" source="fnDxnUJMtYbM2u1HrAq8-15">
          <mxGeometry relative="1" as="geometry">
            <mxPoint x="170" y="380" as="targetPoint" />
            <Array as="points">
              <mxPoint x="210" y="313" />
              <mxPoint x="210" y="350" />
              <mxPoint x="173" y="350" />
              <mxPoint x="173" y="370" />
            </Array>
          </mxGeometry>
        </mxCell>
        <mxCell id="fnDxnUJMtYbM2u1HrAq8-23" value="Admin" style="swimlane;whiteSpace=wrap;fillColor=#dae8fc;strokeColor=#6c8ebf;" vertex="1" parent="1">
          <mxGeometry x="330" y="110" width="640" height="650" as="geometry" />
        </mxCell>
        <mxCell id="fnDxnUJMtYbM2u1HrAq8-24" style="edgeStyle=orthogonalEdgeStyle;rounded=0;orthogonalLoop=1;jettySize=auto;html=1;" edge="1" parent="fnDxnUJMtYbM2u1HrAq8-23" source="fnDxnUJMtYbM2u1HrAq8-25" target="fnDxnUJMtYbM2u1HrAq8-30">
          <mxGeometry relative="1" as="geometry" />
        </mxCell>
        <mxCell id="fnDxnUJMtYbM2u1HrAq8-25" value="" style="ellipse;shape=startState;fillColor=#000000;strokeColor=#ff0000;" vertex="1" parent="fnDxnUJMtYbM2u1HrAq8-23">
          <mxGeometry x="319" y="40" width="30" height="30" as="geometry" />
        </mxCell>
        <mxCell id="fnDxnUJMtYbM2u1HrAq8-26" value="Add Restaurants " style="fillColor=#dae8fc;strokeColor=#6c8ebf;" vertex="1" parent="fnDxnUJMtYbM2u1HrAq8-23">
          <mxGeometry x="20" y="140" width="110" height="30" as="geometry" />
        </mxCell>
        <mxCell id="fnDxnUJMtYbM2u1HrAq8-27" value="" style="ellipse;html=1;shape=endState;fillColor=#000000;strokeColor=#ff0000;" vertex="1" parent="fnDxnUJMtYbM2u1HrAq8-23">
          <mxGeometry x="320" y="589" width="30" height="28" as="geometry" />
        </mxCell>
        <mxCell id="fnDxnUJMtYbM2u1HrAq8-28" style="edgeStyle=orthogonalEdgeStyle;rounded=0;orthogonalLoop=1;jettySize=auto;html=1;entryX=0.509;entryY=-0.04;entryDx=0;entryDy=0;entryPerimeter=0;" edge="1" parent="fnDxnUJMtYbM2u1HrAq8-23" source="fnDxnUJMtYbM2u1HrAq8-30" target="fnDxnUJMtYbM2u1HrAq8-26">
          <mxGeometry relative="1" as="geometry" />
        </mxCell>
        <mxCell id="fnDxnUJMtYbM2u1HrAq8-29" value="" style="edgeStyle=orthogonalEdgeStyle;rounded=0;orthogonalLoop=1;jettySize=auto;html=1;" edge="1" parent="fnDxnUJMtYbM2u1HrAq8-23" source="fnDxnUJMtYbM2u1HrAq8-30" target="fnDxnUJMtYbM2u1HrAq8-32">
          <mxGeometry relative="1" as="geometry" />
        </mxCell>
        <mxCell id="fnDxnUJMtYbM2u1HrAq8-30" value="" style="rhombus;whiteSpace=wrap;html=1;strokeColor=#0000FF;" vertex="1" parent="fnDxnUJMtYbM2u1HrAq8-23">
          <mxGeometry x="270" y="90" width="35" height="40" as="geometry" />
        </mxCell>
        <mxCell id="fnDxnUJMtYbM2u1HrAq8-31" value="" style="edgeStyle=orthogonalEdgeStyle;rounded=0;orthogonalLoop=1;jettySize=auto;html=1;" edge="1" parent="fnDxnUJMtYbM2u1HrAq8-23" source="fnDxnUJMtYbM2u1HrAq8-32" target="fnDxnUJMtYbM2u1HrAq8-35">
          <mxGeometry relative="1" as="geometry" />
        </mxCell>
        <mxCell id="fnDxnUJMtYbM2u1HrAq8-32" value="Remove/Modify Restaurant" style="whiteSpace=wrap;html=1;strokeColor=#6c8ebf;fillColor=#dae8fc;" vertex="1" parent="fnDxnUJMtYbM2u1HrAq8-23">
          <mxGeometry x="350" y="135" width="120" height="60" as="geometry" />
        </mxCell>
        <mxCell id="fnDxnUJMtYbM2u1HrAq8-33" value="" style="edgeStyle=orthogonalEdgeStyle;rounded=0;orthogonalLoop=1;jettySize=auto;html=1;" edge="1" parent="fnDxnUJMtYbM2u1HrAq8-23" source="fnDxnUJMtYbM2u1HrAq8-35" target="fnDxnUJMtYbM2u1HrAq8-36">
          <mxGeometry relative="1" as="geometry" />
        </mxCell>
        <mxCell id="fnDxnUJMtYbM2u1HrAq8-34" value="" style="edgeStyle=orthogonalEdgeStyle;rounded=0;orthogonalLoop=1;jettySize=auto;html=1;" edge="1" parent="fnDxnUJMtYbM2u1HrAq8-23" source="fnDxnUJMtYbM2u1HrAq8-35" target="fnDxnUJMtYbM2u1HrAq8-37">
          <mxGeometry relative="1" as="geometry" />
        </mxCell>
        <mxCell id="fnDxnUJMtYbM2u1HrAq8-35" value="" style="rhombus;whiteSpace=wrap;html=1;strokeColor=#0000FF;" vertex="1" parent="fnDxnUJMtYbM2u1HrAq8-23">
          <mxGeometry x="385" y="233.5" width="50" height="23" as="geometry" />
        </mxCell>
        <mxCell id="fnDxnUJMtYbM2u1HrAq8-36" value="Delete Restaurent" style="rounded=1;whiteSpace=wrap;html=1;strokeColor=#b85450;fillColor=#f8cecc;" vertex="1" parent="fnDxnUJMtYbM2u1HrAq8-23">
          <mxGeometry x="500" y="265" width="110" height="35" as="geometry" />
        </mxCell>
        <mxCell id="fnDxnUJMtYbM2u1HrAq8-37" value="" style="rhombus;whiteSpace=wrap;html=1;strokeColor=#0000FF;" vertex="1" parent="fnDxnUJMtYbM2u1HrAq8-23">
          <mxGeometry x="380" y="300" width="60" height="34" as="geometry" />
        </mxCell>
        <mxCell id="fnDxnUJMtYbM2u1HrAq8-38" value="Remove Restaurant&amp;nbsp;" style="text;html=1;align=center;verticalAlign=middle;resizable=0;points=[];autosize=1;strokeColor=#b85450;fillColor=#f8cecc;" vertex="1" parent="fnDxnUJMtYbM2u1HrAq8-23">
          <mxGeometry x="435" y="210" width="130" height="30" as="geometry" />
        </mxCell>
        <mxCell id="fnDxnUJMtYbM2u1HrAq8-39" style="edgeStyle=orthogonalEdgeStyle;rounded=0;orthogonalLoop=1;jettySize=auto;html=1;entryX=0.511;entryY=0.3;entryDx=0;entryDy=0;entryPerimeter=0;" edge="1" parent="fnDxnUJMtYbM2u1HrAq8-23" source="fnDxnUJMtYbM2u1HrAq8-40" target="fnDxnUJMtYbM2u1HrAq8-51">
          <mxGeometry relative="1" as="geometry" />
        </mxCell>
        <mxCell id="fnDxnUJMtYbM2u1HrAq8-40" value="Edit Restaurant" style="whiteSpace=wrap;html=1;strokeColor=#82b366;fillColor=#d5e8d4;" vertex="1" parent="fnDxnUJMtYbM2u1HrAq8-23">
          <mxGeometry x="280" y="380" width="120" height="60" as="geometry" />
        </mxCell>
        <mxCell id="fnDxnUJMtYbM2u1HrAq8-41" value="" style="edgeStyle=orthogonalEdgeStyle;rounded=0;orthogonalLoop=1;jettySize=auto;html=1;" edge="1" parent="fnDxnUJMtYbM2u1HrAq8-23" source="fnDxnUJMtYbM2u1HrAq8-37">
          <mxGeometry relative="1" as="geometry">
            <mxPoint x="340" y="380" as="targetPoint" />
            <Array as="points">
              <mxPoint x="340" y="320" />
            </Array>
          </mxGeometry>
        </mxCell>
        <mxCell id="fnDxnUJMtYbM2u1HrAq8-42" value="" style="edgeStyle=orthogonalEdgeStyle;rounded=0;orthogonalLoop=1;jettySize=auto;html=1;" edge="1" parent="fnDxnUJMtYbM2u1HrAq8-23" source="fnDxnUJMtYbM2u1HrAq8-43" target="fnDxnUJMtYbM2u1HrAq8-46">
          <mxGeometry relative="1" as="geometry" />
        </mxCell>
        <mxCell id="fnDxnUJMtYbM2u1HrAq8-43" value="Edit Menu" style="whiteSpace=wrap;html=1;strokeColor=#82b366;fillColor=#d5e8d4;" vertex="1" parent="fnDxnUJMtYbM2u1HrAq8-23">
          <mxGeometry x="450" y="350" width="120" height="40" as="geometry" />
        </mxCell>
        <mxCell id="fnDxnUJMtYbM2u1HrAq8-44" value="" style="edgeStyle=orthogonalEdgeStyle;rounded=0;orthogonalLoop=1;jettySize=auto;html=1;entryX=0.542;entryY=0;entryDx=0;entryDy=0;entryPerimeter=0;" edge="1" parent="fnDxnUJMtYbM2u1HrAq8-23" source="fnDxnUJMtYbM2u1HrAq8-37" target="fnDxnUJMtYbM2u1HrAq8-43">
          <mxGeometry relative="1" as="geometry" />
        </mxCell>
        <mxCell id="fnDxnUJMtYbM2u1HrAq8-45" style="edgeStyle=orthogonalEdgeStyle;rounded=0;orthogonalLoop=1;jettySize=auto;html=1;entryX=0.919;entryY=0.7;entryDx=0;entryDy=0;entryPerimeter=0;" edge="1" parent="fnDxnUJMtYbM2u1HrAq8-23" source="fnDxnUJMtYbM2u1HrAq8-46" target="fnDxnUJMtYbM2u1HrAq8-51">
          <mxGeometry relative="1" as="geometry" />
        </mxCell>
        <mxCell id="fnDxnUJMtYbM2u1HrAq8-46" value="Update Price" style="rounded=1;whiteSpace=wrap;html=1;strokeColor=#82b366;fillColor=#d5e8d4;" vertex="1" parent="fnDxnUJMtYbM2u1HrAq8-23">
          <mxGeometry x="450" y="460" width="120" height="30" as="geometry" />
        </mxCell>
        <mxCell id="fnDxnUJMtYbM2u1HrAq8-47" style="edgeStyle=orthogonalEdgeStyle;rounded=0;orthogonalLoop=1;jettySize=auto;html=1;entryX=0.229;entryY=0.5;entryDx=0;entryDy=0;entryPerimeter=0;" edge="1" parent="fnDxnUJMtYbM2u1HrAq8-23" source="fnDxnUJMtYbM2u1HrAq8-48" target="fnDxnUJMtYbM2u1HrAq8-51">
          <mxGeometry relative="1" as="geometry" />
        </mxCell>
        <mxCell id="fnDxnUJMtYbM2u1HrAq8-48" value="Add Price" style="whiteSpace=wrap;html=1;fillColor=#d5e8d4;strokeColor=#82b366;" vertex="1" parent="fnDxnUJMtYbM2u1HrAq8-23">
          <mxGeometry x="100" y="350" width="80" height="50" as="geometry" />
        </mxCell>
        <mxCell id="fnDxnUJMtYbM2u1HrAq8-49" value="Input text" style="text;fontColor=#ffffff;fontSize=16;verticalAlign=middle;strokeColor=none;fillColor=none;" vertex="1" parent="fnDxnUJMtYbM2u1HrAq8-23">
          <mxGeometry x="60" y="510" width="510" height="30" as="geometry" />
        </mxCell>
        <mxCell id="fnDxnUJMtYbM2u1HrAq8-50" style="edgeStyle=orthogonalEdgeStyle;rounded=0;orthogonalLoop=1;jettySize=auto;html=1;entryX=0.5;entryY=0;entryDx=0;entryDy=0;" edge="1" parent="fnDxnUJMtYbM2u1HrAq8-23" source="fnDxnUJMtYbM2u1HrAq8-51" target="fnDxnUJMtYbM2u1HrAq8-27">
          <mxGeometry relative="1" as="geometry" />
        </mxCell>
        <mxCell id="fnDxnUJMtYbM2u1HrAq8-51" value="" style="dashed=0;shape=line;strokeWidth=2;noLabel=1;strokeColor=#1F9BFD;" vertex="1" parent="fnDxnUJMtYbM2u1HrAq8-23">
          <mxGeometry x="30" y="535" width="520" height="10" as="geometry" />
        </mxCell>
        <mxCell id="fnDxnUJMtYbM2u1HrAq8-52" value="Modify details" style="text;html=1;align=center;verticalAlign=middle;resizable=0;points=[];autosize=1;strokeColor=#82b366;fillColor=#d5e8d4;" vertex="1" parent="fnDxnUJMtYbM2u1HrAq8-23">
          <mxGeometry x="305" y="256.5" width="100" height="30" as="geometry" />
        </mxCell>
        <mxCell id="fnDxnUJMtYbM2u1HrAq8-53" style="edgeStyle=orthogonalEdgeStyle;rounded=0;orthogonalLoop=1;jettySize=auto;html=1;" edge="1" parent="1" source="fnDxnUJMtYbM2u1HrAq8-13">
          <mxGeometry relative="1" as="geometry">
            <mxPoint x="-10" y="350" as="targetPoint" />
          </mxGeometry>
        </mxCell>
        <mxCell id="fnDxnUJMtYbM2u1HrAq8-54" value="If closed" style="text;html=1;align=center;verticalAlign=middle;resizable=0;points=[];autosize=1;strokeColor=#b85450;fillColor=#f8cecc;" vertex="1" parent="1">
          <mxGeometry x="95" y="345" width="70" height="30" as="geometry" />
        </mxCell>
        <mxCell id="fnDxnUJMtYbM2u1HrAq8-55" style="edgeStyle=orthogonalEdgeStyle;rounded=0;orthogonalLoop=1;jettySize=auto;html=1;entryX=0.407;entryY=0;entryDx=0;entryDy=0;entryPerimeter=0;exitX=0.496;exitY=1.05;exitDx=0;exitDy=0;exitPerimeter=0;" edge="1" parent="1" source="fnDxnUJMtYbM2u1HrAq8-57" target="fnDxnUJMtYbM2u1HrAq8-60">
          <mxGeometry relative="1" as="geometry" />
        </mxCell>
        <mxCell id="fnDxnUJMtYbM2u1HrAq8-56" style="edgeStyle=orthogonalEdgeStyle;rounded=0;orthogonalLoop=1;jettySize=auto;html=1;entryX=0.45;entryY=-0.02;entryDx=0;entryDy=0;entryPerimeter=0;" edge="1" parent="1" source="fnDxnUJMtYbM2u1HrAq8-57" target="fnDxnUJMtYbM2u1HrAq8-48">
          <mxGeometry relative="1" as="geometry" />
        </mxCell>
        <mxCell id="fnDxnUJMtYbM2u1HrAq8-57" value="Enter details" style="whiteSpace=wrap;html=1;fillColor=#d5e8d4;strokeColor=#82b366;" vertex="1" parent="1">
          <mxGeometry x="345" y="320" width="115" height="40" as="geometry" />
        </mxCell>
        <mxCell id="fnDxnUJMtYbM2u1HrAq8-58" value="" style="edgeStyle=orthogonalEdgeStyle;rounded=0;orthogonalLoop=1;jettySize=auto;html=1;exitX=0.555;exitY=1.067;exitDx=0;exitDy=0;exitPerimeter=0;entryX=0.496;entryY=-0.1;entryDx=0;entryDy=0;entryPerimeter=0;" edge="1" parent="1" source="fnDxnUJMtYbM2u1HrAq8-26" target="fnDxnUJMtYbM2u1HrAq8-57">
          <mxGeometry relative="1" as="geometry">
            <mxPoint x="400" y="340" as="targetPoint" />
          </mxGeometry>
        </mxCell>
        <mxCell id="fnDxnUJMtYbM2u1HrAq8-59" style="edgeStyle=orthogonalEdgeStyle;rounded=0;orthogonalLoop=1;jettySize=auto;html=1;entryX=-0.008;entryY=0.833;entryDx=0;entryDy=0;entryPerimeter=0;" edge="1" parent="1" source="fnDxnUJMtYbM2u1HrAq8-60" target="fnDxnUJMtYbM2u1HrAq8-49">
          <mxGeometry relative="1" as="geometry" />
        </mxCell>
        <mxCell id="fnDxnUJMtYbM2u1HrAq8-60" value="Add Items" style="whiteSpace=wrap;html=1;fillColor=#d5e8d4;strokeColor=#82b366;" vertex="1" parent="1">
          <mxGeometry x="342.5" y="430" width="67.5" height="50" as="geometry" />
        </mxCell>
        <mxCell id="fnDxnUJMtYbM2u1HrAq8-61" value="" style="endArrow=classic;html=1;rounded=0;fontSize=19;" edge="1" parent="1">
          <mxGeometry width="50" height="50" relative="1" as="geometry">
            <mxPoint x="280" y="430" as="sourcePoint" />
            <mxPoint x="280" y="430" as="targetPoint" />
          </mxGeometry>
        </mxCell>
      </root>
    </mxGraphModel>
  </diagram>
</mxfile>
